<svg width="24" height="24" viewBox="0 0 24 24" xmlns="http://www.w3.org/2000/svg">
<path d="M19.0277 8.91883C18.3708 7.50808 17.4532 6.13204 16.3005 4.82902C16.0589 4.55586 15.642 4.53932 15.379 4.78484L12.3461 7.61558V1.68744C12.3461 1.19119 11.7477 0.820414 11.2997 1.09146C8.8364 2.58145 5.84427 5.57018 4.31192 8.76152C3.44137 10.5745 3 13.4535 3 15.3463C2.99996 20.118 6.8726 24 11.6327 24C17.6137 24 22.7053 16.8163 19.0277 8.91883ZM9.64112 20.7114C9.64112 19.044 10.9835 17.8201 11.6338 17.3252C12.2811 17.851 13.6243 19.1322 13.6243 20.7114C13.6243 21.8122 12.7309 22.7078 11.6327 22.7078C10.5345 22.7078 9.64112 21.8122 9.64112 20.7114ZM14.6185 22.0713C15.604 19.9058 13.9733 17.2885 12.0025 15.9889C11.796 15.8528 11.5303 15.8469 11.318 15.9738C9.26458 17.202 7.65944 19.9015 8.64687 22.0713C6.08142 20.9222 4.28902 18.3403 4.28902 15.3463C4.28902 10.6612 7.34023 5.5808 11.057 2.82508V9.10003C11.057 9.66309 11.7291 9.957 12.1408 9.5729L15.7658 6.18949C17.8968 8.77381 18.9764 12.5151 18.9764 15.3464C18.9764 18.3403 17.184 20.9222 14.6185 22.0713Z" />
</svg>
